
Alex masterminds an ambitious plan to steal millions of untraceable cash
that is stacked in the underground vaults of The London Exchange Bank, waiting
for its last journey, Incineration. Lucky, Matty, Terry, Chubby, Norman and Jay
make up his unlikely gang of robbers. Setting up their alibi, the gang check in
for a flight and join in with thousands of England supporters that are part of a
mass exodus to The World Cup Tournament in Germany. Instead of passing through to
Departure Lounge, the gang head out to the car park, pile into a van and head for
Central London where they spectacularly ram raid London Exchange Bank.


Cast

Xavier Anderson ... SWAT man
Brodie Bass ... Passport Control
Geoff Bell ... Alex
Vas Blackwood ... Lucky
Robert Boulter ... Jay
Max Brown ... Doctor
Clair Elsmore ... Cashier
James Johnson Flint ... Airline Captain
Antonio Gil ... Bank Manager (as Antonio Gil Martinez)
Leo Gregory ... Matty
Johnny Harris ... Terry
Anya Lahiri ... Check-In Girl
Laura Martin-Simpson ... Shelly
Rhys Meredith ... Assistant Police Chief
Tiffany Mulheron ... Brunette


General Info
General
Complete name : Daylight Robbery 2008 DVDRip Xvid BigPerm LKRG\DR_LKRG.avi
Format : AVI
Format/Info : Audio Video Interleave
Format profile : OpenDML
File size : 1.14 GiB
Duration : 1h 39mn
Overall bit rate : 1 654 Kbps

Video
ID : 0
Format : MPEG-4 Visual
Format profile : Advanced Simple@L5
Format settings, BVOP : Yes
Format settings, QPel : No
Format settings, GMC : No warppoints
Format settings, Matrix : Default (H.263)
Codec ID : XVID
Codec ID/Hint : XviD
Duration : 1h 39mn
Bit rate : 1 200 Kbps
Width : 704 pixels
Height : 396 pixels
Display aspect ratio : 16:9
Frame rate : 23.976 fps
Color space : YUV
Chroma subsampling : 4:2:0
Bit depth : 8 bits
Scan type : Progressive
Compression mode : Lossy
Bits/(Pixel*Frame) : 0.179
Stream size : 850 MiB (73%)
Writing library : XviD 1.2.1 (UTC 2008-12-04)

Audio
ID : 1
Format : AC-3
Format/Info : Audio Coding 3
Mode extension : CM (complete main)
Codec ID : 2000
Duration : 1h 39mn
Bit rate mode : Constant
Bit rate : 448 Kbps
Channel(s) : 6 channels
Channel positions : Front: L C R, Side: L R, LFE
Sampling rate : 48.0 KHz
Bit depth : 16 bits
Compression mode : Lossy
Video delay : 42ms
Stream size : 317 MiB (27%)
Alignment : Split accross interleaves
Interleave, duration : 500 ms (11.99 video frames)
Interleave, preload duration : 500 ms
Language : English


Screens
 
http://leetleech.org/images/30544096102858296863.png 
http://leetleech.org/images/52393512069069313662.png 
http://leetleech.org/images/77135140960742601147.png 
http://leetleech.org/images/82529657237308013736.png 
http://leetleech.org/images/00343673066099181405.png


   http://www.imdb.com/title/tt0893401/ 

Thanks to BigPerm